<?xml version="1.0" standalone="no"?><!DOCTYPE svg PUBLIC "-//W3C//DTD SVG 1.1//EN" "http://www.w3.org/Graphics/SVG/1.1/DTD/svg11.dtd"><svg t="1606891211266" class="icon" viewBox="0 0 1024 1024" version="1.1" xmlns="http://www.w3.org/2000/svg" p-id="3251" xmlns:xlink="http://www.w3.org/1999/xlink" width="200" height="200"><defs><style type="text/css"></style></defs><path d="M918.016 144.896a38.464 38.464 0 0 0-37.888-37.888l-314.368-5.12c-10.24 0-20.48 3.584-27.648 11.264l-424.96 424.96a38.624 38.624 0 0 0 0 54.272l318.464 318.464c7.68 7.68 17.408 11.264 27.136 11.264s19.456-3.584 27.136-11.264l424.96-424.96c7.168-7.168 11.264-17.408 11.264-27.648l-4.096-313.344z m-174.08 211.968c0 42.496-34.304 76.8-76.8 76.8s-76.8-34.304-76.8-76.8c0-42.496 34.304-76.8 76.8-76.8s76.8 34.304 76.8 76.8z" p-id="3252"></path></svg>